HIERARCHY
ROOT Hips
{
	OFFSET 0.000000 0.000000 0.000000
	CHANNELS 6 Xposition Yposition Zposition Xrotation Yrotation Zrotation
	JOINT LeftUpLeg_virtual
	{
		OFFSET 0.000000 0.000000 0.000000
		CHANNELS 3 Xrotation Yrotation Zrotation
		JOINT LeftUpLeg
		{
			OFFSET 11.394100 -6.187798 -0.413800
			CHANNELS 3 Xrotation Yrotation Zrotation
			JOINT LeftLeg
			{
				OFFSET 0.430247 -32.302673 3.732800
				CHANNELS 3 Xrotation Yrotation Zrotation
				JOINT LeftFoot
				{
					OFFSET -0.430247 -48.264931 -6.423300
					CHANNELS 3 Xrotation Yrotation Zrotation
					JOINT LeftToeBase
					{
						OFFSET 4.230900 -16.068199 23.438400
						CHANNELS 3 Xrotation Yrotation Zrotation
						JOINT LeftToe_End
						{
							OFFSET 4.510700 0.695400 19.974600
							CHANNELS 3 Xrotation Yrotation Zrotation
							End Site
							{
								OFFSET 0 0 0
							}
						}
					}
				}
			}
		}
	}
	JOINT RightUpLeg_virtual
	{
		OFFSET 0.000000 0.000000 0.000000
		CHANNELS 3 Xrotation Yrotation Zrotation
		JOINT RightUpLeg
		{
			OFFSET -11.333700 -6.187798 -0.413800
			CHANNELS 3 Xrotation Yrotation Zrotation
			JOINT RightLeg
			{
				OFFSET -0.430392 -32.302628 3.733000
				CHANNELS 3 Xrotation Yrotation Zrotation
				JOINT RightFoot
				{
					OFFSET 0.430392 -48.264973 -6.423500
					CHANNELS 3 Xrotation Yrotation Zrotation
					JOINT RightToeBase
					{
						OFFSET -4.230900 -16.068199 23.438400
						CHANNELS 3 Xrotation Yrotation Zrotation
						JOINT RightToe_End
						{
							OFFSET -4.510700 0.695400 19.974600
							CHANNELS 3 Xrotation Yrotation Zrotation
							End Site
							{
								OFFSET 0 0 0
							}
						}
					}
				}
			}
		}
	}
	JOINT Spine_virtual
	{
		OFFSET 0.000000 0.000000 0.000000
		CHANNELS 3 Xrotation Yrotation Zrotation
		JOINT Spine
		{
			OFFSET -0.002400 12.777504 0.315300
			CHANNELS 3 Xrotation Yrotation Zrotation
			JOINT Spine1
			{
				OFFSET -0.002067 5.816869 0.032633
				CHANNELS 3 Xrotation Yrotation Zrotation
				JOINT Spine1_split
				{
					OFFSET -0.002067 5.816869 0.032633
					CHANNELS 3 Xrotation Yrotation Zrotation
					JOINT Spine2
					{
						OFFSET -0.002067 5.816869 0.032633
						CHANNELS 3 Xrotation Yrotation Zrotation
						JOINT Neck_virtual
						{
							OFFSET 0.000000 0.000000 0.000000
							CHANNELS 3 Xrotation Yrotation Zrotation
							JOINT Neck
							{
								OFFSET -0.003700 21.199493 -0.826900
								CHANNELS 3 Xrotation Yrotation Zrotation
								JOINT Head
								{
									OFFSET 0.000000 20.442200 4.834800
									CHANNELS 3 Xrotation Yrotation Zrotation
									JOINT HeadTop_End
									{
										OFFSET 0.000000 34.668396 4.968400
										CHANNELS 3 Xrotation Yrotation Zrotation
										End Site
										{
											OFFSET 0 0 0
										}
									}
								}
							}
						}
						JOINT LeftShoulder_virtual
						{
							OFFSET 0.000000 0.000000 0.000000
							CHANNELS 3 Xrotation Yrotation Zrotation
							JOINT LeftShoulder
							{
								OFFSET 3.288150 8.794197 -1.372250
								CHANNELS 3 Xrotation Yrotation Zrotation
								JOINT LeftShoulder_split
								{
									OFFSET 3.288150 8.794197 -1.372250
									CHANNELS 3 Xrotation Yrotation Zrotation
									JOINT LeftArm
									{
										OFFSET 11.953299 -2.279007 -0.146200
										CHANNELS 3 Xrotation Yrotation Zrotation
										JOINT LeftForeArm
										{
											OFFSET 18.448900 0.000000 0.000000
											CHANNELS 3 Xrotation Yrotation Zrotation
											JOINT LeftHand
											{
												OFFSET 29.527798 0.000000 0.000000
												CHANNELS 3 Xrotation Yrotation Zrotation
												End Site
												{
													OFFSET 0 0 0
												}
											}
										}
									}
								}
							}
						}
						JOINT RightShoulder_virtual
						{
							OFFSET 0.000000 0.000000 0.000000
							CHANNELS 3 Xrotation Yrotation Zrotation
							JOINT RightShoulder
							{
								OFFSET -3.249400 8.794197 -1.372250
								CHANNELS 3 Xrotation Yrotation Zrotation
								JOINT RightShoulder_split
								{
									OFFSET -3.249400 8.794197 -1.372250
									CHANNELS 3 Xrotation Yrotation Zrotation
									JOINT RightArm
									{
										OFFSET -11.953299 -2.279007 -0.146200
										CHANNELS 3 Xrotation Yrotation Zrotation
										JOINT RightForeArm
										{
											OFFSET -18.448900 0.000000 0.000000
											CHANNELS 3 Xrotation Yrotation Zrotation
											JOINT RightHand
											{
												OFFSET -29.527802 0.000000 0.000000
												CHANNELS 3 Xrotation Yrotation Zrotation
												End Site
												{
													OFFSET 0 0 0
												}
											}
										}
									}
								}
							}
						}
					}
				}
			}
		}
	}
}
MOTION
Frames: 4
Frame Time: 0.03333333
-0.774662 96.611015 -0.596500 0.000000 0.000000 0.000000 -32.786551 -84.845505 -32.736427 -23.801398 13.400343 11.617845 33.215439 0.762484 3.294102 -3.728552 1.189526 -8.289288 -4.574449 0.029094 0.425267 0.000000 0.000000 0.000000 -25.882117 -84.467454 -26.273991 -19.526316 -20.764822 -10.975807 29.277275 6.022857 -8.223053 -3.649239 -0.629459 9.744438 -0.403712 0.085746 0.988334 0.000000 0.000000 0.000000 -34.752067 -83.905643 -35.525501 3.347152 0.468397 0.722905 3.606635 -0.181013 2.033141 0.496423 3.200267 -0.120637 0.000000 0.000000 0.000000 3.295074 -0.015560 1.599481 -6.132264 7.558644 -3.716778 2.971469 33.919925 -1.701099 0.000000 0.000000 0.000000 4.675025 0.267505 1.777432 0.768745 6.200545 0.056279 1.160646 0.832527 -0.456746 10.846852 -79.171031 -52.442165 -0.850803 -20.836552 0.768411 0.000000 0.000000 0.000000 5.432237 0.636502 1.333029 2.171561 1.554687 6.685590 3.003410 3.947661 0.084899 8.629046 26.093138 62.402705 1.351574 31.664289 0.147034 0.000000 0.000000 0.000000 
-0.741808 96.603859 -0.586004 0.000000 0.000000 0.000000 -34.455774 -84.911300 -34.358608 -23.589045 13.400277 11.718803 33.469293 0.606433 3.354374 -3.758940 1.263721 -7.831894 -4.217942 0.062263 0.255441 0.000000 0.000000 0.000000 -27.072964 -84.463383 -27.437152 -19.641928 -20.742769 -10.945721 29.433864 5.975712 -8.273561 -3.417161 -0.766249 9.818694 -0.451203 0.051689 1.037324 0.000000 0.000000 0.000000 -35.660950 -83.887243 -36.524286 3.433790 0.418781 0.834954 3.596212 -0.192999 2.045238 0.537234 2.398654 0.017952 0.000000 0.000000 0.000000 3.271512 0.006901 1.611771 -6.239211 7.548992 -3.759409 2.923102 33.971851 -1.882781 0.000000 0.000000 0.000000 4.684377 0.255159 1.807746 0.741436 6.017031 -0.000103 1.197306 0.794133 -0.385990 11.498017 -79.332859 -52.008182 -1.198943 -21.361032 0.386218 0.000000 0.000000 0.000000 5.524075 0.671555 1.407492 2.230553 1.445367 6.732678 2.993259 3.718703 0.023358 9.268124 26.079704 61.977212 1.385383 31.918683 0.027290 0.000000 0.000000 0.000000 
-0.626009 96.586357 -0.648071 0.000000 0.000000 0.000000 -35.848661 -84.903841 -35.774868 -23.567865 13.433188 11.869258 33.801612 0.272518 3.514286 -3.922176 1.148074 -7.575965 -3.935348 0.101605 0.112273 0.000000 0.000000 0.000000 -28.824450 -84.343827 -29.179326 -19.584376 -20.765332 -10.811308 29.653096 5.997583 -8.380566 -3.299811 -0.916504 10.105770 -0.472825 -0.000799 0.964557 0.000000 0.000000 0.000000 -36.340790 -83.792276 -37.291802 3.579822 0.264542 1.066079 3.610100 -0.244405 2.036053 0.513865 1.747307 0.128823 0.000000 0.000000 0.000000 3.348723 -0.022769 1.661346 -6.326409 7.639672 -3.906585 2.975871 34.293581 -2.294491 0.000000 0.000000 0.000000 4.833695 0.195017 1.846602 0.763454 5.892881 -0.014286 1.194019 1.097987 -0.632054 14.934887 -79.613819 -48.980369 -1.303210 -22.272560 0.126278 0.000000 0.000000 0.000000 5.623189 0.635007 1.485450 2.316832 1.358897 6.669367 2.866875 3.820513 0.111959 10.064404 25.991177 61.562032 1.334036 32.953436 0.026490 0.000000 0.000000 0.000000 
-0.473692 96.535233 -0.739683 0.000000 0.000000 0.000000 -36.575803 -84.840867 -36.564318 -23.708628 13.603535 12.026470 34.159098 -0.179267 3.749796 -4.208770 0.862873 -7.576036 -4.079399 0.108478 0.173035 0.000000 0.000000 0.000000 -30.789226 -84.222769 -31.125339 -19.472608 -20.746949 -10.633084 29.951189 6.096217 -8.525636 -3.326845 -0.998955 10.548192 -0.405837 -0.053999 0.791771 0.000000 0.000000 0.000000 -36.737620 -83.682699 -37.713217 3.732931 0.056900 1.318934 3.632882 -0.293568 2.017231 0.613475 1.265101 0.143289 0.000000 0.000000 0.000000 3.493130 -0.071682 1.739301 -6.329963 7.786173 -4.128171 3.106994 34.746388 -2.842034 0.000000 0.000000 0.000000 5.056961 0.129263 1.903315 0.809502 5.860198 0.052061 1.087481 1.542698 -0.981057 20.535053 -80.009102 -43.799667 -1.158732 -23.017517 0.021400 0.000000 0.000000 0.000000 5.714643 0.566320 1.553181 2.400172 1.355763 6.551618 2.768662 4.175541 0.219811 10.790725 25.871083 61.241826 1.189879 34.404527 0.150657 0.000000 0.000000 0.000000 
